<?xml version="1.0" encoding="UTF-8"?><svg xmlns="http://www.w3.org/2000/svg" width="4300" height="2650" viewBox="0 0 4300 2650"><defs><marker id="arrow" viewBox="0 0 10 10" refX="9" refY="5" markerWidth="8" markerHeight="8" orient="auto-start-reverse"><path d="M 0 0 L 10 5 L 0 10 z" fill="#4D668F" /></marker></defs><rect x="0" y="0" width="4300" height="2650" rx="0" ry="0" fill="#FFFFFF" stroke="#FFFFFF" stroke-width="0" /><polyline fill="none" stroke="#4D668F" stroke-width="3" marker-end="url(#arrow)" points="400,246 395,350" /><text x="400" y="315" text-anchor="middle" fill="#5C6B87" style="font-family:Arial,Helvetica,sans-serif;font-size:13px;font-weight:400;"><tspan x="400" dy="0">содержит</tspan></text><polyline fill="none" stroke="#4D668F" stroke-width="3" marker-end="url(#arrow)" points="395,618 395,900" /><polyline fill="none" stroke="#4D668F" stroke-width="3" marker-end="url(#arrow)" points="395,1120 395,1370" /><text x="395" y="1340" text-anchor="middle" fill="#5C6B87" style="font-family:Arial,Helvetica,sans-serif;font-size:13px;font-weight:400;"><tspan x="395" dy="0">содержит</tspan></text><polyline fill="none" stroke="#4D668F" stroke-width="3" marker-end="url(#arrow)" points="395,1662 395,1970" /><text x="400" y="1950" text-anchor="middle" fill="#5C6B87" style="font-family:Arial,Helvetica,sans-serif;font-size:13px;font-weight:400;"><tspan x="400" dy="0">преобразуется в</tspan></text><polyline fill="none" stroke="#4D668F" stroke-width="3" stroke-dasharray="12 10" marker-end="url(#arrow)" points="670,700 860,700 960,448" /><text x="800" y="735" text-anchor="middle" fill="#5C6B87" style="font-family:Arial,Helvetica,sans-serif;font-size:13px;font-weight:400;"><tspan x="800" dy="0">использует</tspan></text><polyline fill="none" stroke="#4D668F" stroke-width="3" stroke-dasharray="12 10" marker-start="url(#arrow)" marker-end="url(#arrow)" points="1340,383 1460,408" /><text x="1405" y="485" text-anchor="middle" fill="#5C6B87" style="font-family:Arial,Helvetica,sans-serif;font-size:13px;font-weight:400;"><tspan x="1405" dy="0">связан с</tspan></text><polyline fill="none" stroke="#4D668F" stroke-width="3" stroke-dasharray="12 10" marker-start="url(#arrow)" marker-end="url(#arrow)" points="1740,408 1860,408" /><text x="1800" y="485" text-anchor="middle" fill="#5C6B87" style="font-family:Arial,Helvetica,sans-serif;font-size:13px;font-weight:400;"><tspan x="1800" dy="0">связан с</tspan></text><polyline fill="none" stroke="#4D668F" stroke-width="3" marker-end="url(#arrow)" points="1830,1040 1800,1230" /><text x="1830" y="1210" text-anchor="middle" fill="#5C6B87" style="font-family:Arial,Helvetica,sans-serif;font-size:13px;font-weight:400;"><tspan x="1830" dy="0">содержит</tspan></text><polyline fill="none" stroke="#4D668F" stroke-width="3" stroke-dasharray="12 10" marker-end="url(#arrow)" points="1390,1272 1520,1450 1580,1390" /><polyline fill="none" stroke="#4D668F" stroke-width="3" stroke-dasharray="12 10" marker-end="url(#arrow)" points="1140,1160 1140,1080 1150,606" /><text x="1380" y="1000" text-anchor="middle" fill="#5C6B87" style="font-family:Arial,Helvetica,sans-serif;font-size:13px;font-weight:400;"><tspan x="1380" dy="0">используется</tspan><tspan x="1380" dy="18">для очистки текста</tspan><tspan x="1380" dy="18">страницы</tspan></text><polyline fill="none" stroke="#4D668F" stroke-width="3" stroke-dasharray="12 10" marker-end="url(#arrow)" points="1150,1760 1520,1760 1580,1460" /><text x="1290" y="1720" text-anchor="middle" fill="#5C6B87" style="font-family:Arial,Helvetica,sans-serif;font-size:13px;font-weight:400;"><tspan x="1290" dy="0">результат передается</tspan><tspan x="1290" dy="18">в модуль орфографии</tspan></text><polyline fill="none" stroke="#4D668F" stroke-width="3" stroke-dasharray="12 10" marker-end="url(#arrow)" points="670,2104 780,2092" /><text x="710" y="2190" text-anchor="middle" fill="#5C6B87" style="font-family:Arial,Helvetica,sans-serif;font-size:13px;font-weight:400;"><tspan x="710" dy="0">преобразуется в</tspan></text><polyline fill="none" stroke="#4D668F" stroke-width="3" stroke-dasharray="12 10" marker-start="url(#arrow)" marker-end="url(#arrow)" points="1210,2092 1480,2084" /><text x="1340" y="2200" text-anchor="middle" fill="#5C6B87" style="font-family:Arial,Helvetica,sans-serif;font-size:13px;font-weight:400;"><tspan x="1340" dy="0">использует</tspan></text><polyline fill="none" stroke="#4D668F" stroke-width="3" stroke-dasharray="12 10" marker-end="url(#arrow)" points="1640,1950 1760,1570" /><text x="1730" y="1910" text-anchor="middle" fill="#5C6B87" style="font-family:Arial,Helvetica,sans-serif;font-size:13px;font-weight:400;"><tspan x="1730" dy="0">обогащает</tspan></text><polyline fill="none" stroke="#4D668F" stroke-width="3" stroke-dasharray="12 10" marker-end="url(#arrow)" points="2040,2084 2340,2150" /><text x="2200" y="2200" text-anchor="middle" fill="#5C6B87" style="font-family:Arial,Helvetica,sans-serif;font-size:13px;font-weight:400;"><tspan x="2200" dy="0">обогащает</tspan></text><polyline fill="none" stroke="#4D668F" stroke-width="3" stroke-dasharray="12 10" marker-end="url(#arrow)" points="1210,2225 1210,2500 2040,2500 2040,2425" /><text x="1625" y="2550" text-anchor="middle" fill="#5C6B87" style="font-family:Arial,Helvetica,sans-serif;font-size:13px;font-weight:400;"><tspan x="1625" dy="0">двухслойное представление текста</tspan></text><polyline fill="none" stroke="#4D668F" stroke-width="3" marker-end="url(#arrow)" points="2560,580 2490,334" /><text x="2460" y="540" text-anchor="middle" fill="#5C6B87" style="font-family:Arial,Helvetica,sans-serif;font-size:13px;font-weight:400;"><tspan x="2460" dy="0">содержит</tspan></text><polyline fill="none" stroke="#4D668F" stroke-width="3" marker-end="url(#arrow)" points="2805,580 3025,358" /><text x="3000" y="540" text-anchor="middle" fill="#5C6B87" style="font-family:Arial,Helvetica,sans-serif;font-size:13px;font-weight:400;"><tspan x="3000" dy="0">содержит</tspan></text><polyline fill="none" stroke="#4D668F" stroke-width="3" marker-end="url(#arrow)" points="2680,848 2560,1190" /><text x="2670" y="1160" text-anchor="middle" fill="#5C6B87" style="font-family:Arial,Helvetica,sans-serif;font-size:13px;font-weight:400;"><tspan x="2670" dy="0">формирует</tspan></text><polyline fill="none" stroke="#4D668F" stroke-width="3" marker-end="url(#arrow)" points="2780,1384 3020,1490" /><text x="2920" y="1540" text-anchor="middle" fill="#5C6B87" style="font-family:Arial,Helvetica,sans-serif;font-size:13px;font-weight:400;"><tspan x="2920" dy="0">использует</tspan></text><polyline fill="none" stroke="#4D668F" stroke-width="3" stroke-dasharray="12 10" marker-start="url(#arrow)" marker-end="url(#arrow)" points="2020,1400 2340,1384" /><text x="2250" y="1750" text-anchor="middle" fill="#5C6B87" style="font-family:Arial,Helvetica,sans-serif;font-size:13px;font-weight:400;"><tspan x="2250" dy="0">содержит</tspan></text><polyline fill="none" stroke="#4D668F" stroke-width="3" marker-end="url(#arrow)" points="2485,1578 2530,2040" /><text x="2480" y="2010" text-anchor="middle" fill="#5C6B87" style="font-family:Arial,Helvetica,sans-serif;font-size:13px;font-weight:400;"><tspan x="2480" dy="0">агрегирует</tspan></text><polyline fill="none" stroke="#4D668F" stroke-width="3" marker-end="url(#arrow)" points="2670,1578 2990,2060" /><text x="2910" y="2025" text-anchor="middle" fill="#5C6B87" style="font-family:Arial,Helvetica,sans-serif;font-size:13px;font-weight:400;"><tspan x="2910" dy="0">агрегирует</tspan></text><polyline fill="none" stroke="#4D668F" stroke-width="3" marker-end="url(#arrow)" points="3160,2170 3240,2190" /><text x="3200" y="2190" text-anchor="middle" fill="#5C6B87" style="font-family:Arial,Helvetica,sans-serif;font-size:13px;font-weight:400;"><tspan x="3200" dy="0">содержит</tspan></text><polyline fill="none" stroke="#4D668F" stroke-width="3" stroke-dasharray="12 10" marker-end="url(#arrow)" points="2700,170 760,170 760,320 680,108" /><polyline fill="none" stroke="#4D668F" stroke-width="3" stroke-dasharray="12 10" marker-end="url(#arrow)" points="3490,200 3360,170 3240,204" /><polyline fill="none" stroke="#4D668F" stroke-width="3" stroke-dasharray="12 10" marker-end="url(#arrow)" points="3490,750 2940,770 2940,734" /><polyline fill="none" stroke="#4D668F" stroke-width="3" stroke-dasharray="12 10" marker-end="url(#arrow)" points="3490,760 3320,760 3320,1420 2780,1420" /><polyline fill="none" stroke="#4D668F" stroke-width="3" stroke-dasharray="12 10" marker-end="url(#arrow)" points="3470,1254 3310,1410 3310,1410 3240,1410" /><text x="3330" y="1260" text-anchor="middle" fill="#5C6B87" style="font-family:Arial,Helvetica,sans-serif;font-size:13px;font-weight:400;"><tspan x="3330" dy="0">двухслойное</tspan><tspan x="3330" dy="18">представление</tspan><tspan x="3330" dy="18">текста</tspan></text><polyline fill="none" stroke="#4D668F" stroke-width="3" stroke-dasharray="12 10" marker-end="url(#arrow)" points="3470,1344 3290,1515 3290,1515 2780,1364" /><polyline fill="none" stroke="#4D668F" stroke-width="3" stroke-dasharray="12 10" marker-end="url(#arrow)" points="3470,1419 3260,1700 3260,1700 3360,1490" /><polyline fill="none" stroke="#4D668F" stroke-width="3" stroke-dasharray="12 10" marker-end="url(#arrow)" points="3490,1778 3340,1810 3340,1610 3190,1600" /><polyline fill="none" stroke="#4D668F" stroke-width="3" stroke-dasharray="12 10" marker-end="url(#arrow)" points="3470,2218 3340,2250 3340,1930 3190,1930 3180,1600" /><text x="3320" y="2130" text-anchor="middle" fill="#5C6B87" style="font-family:Arial,Helvetica,sans-serif;font-size:13px;font-weight:400;"><tspan x="3320" dy="0">связан с</tspan></text><polyline fill="none" stroke="#4D668F" stroke-width="3" stroke-dasharray="12 10" marker-end="url(#arrow)" points="3490,2488 3360,2520 3360,2215 3540,2190" /><rect x="120" y="50" width="560" height="196" rx="12" ry="12" fill="#FFFFFF" stroke="#5B6F95" stroke-width="2" /><rect x="120" y="50" width="560" height="60" rx="12" ry="12" fill="#F4F7FC" stroke="#5B6F95" stroke-width="2" /><line x1="120" y1="110" x2="680" y2="110" stroke="#5B6F95" stroke-width="2" /><line x1="120" y1="190" x2="680" y2="190" stroke="#5B6F95" stroke-width="2" /><text x="400" y="78" text-anchor="middle" fill="#1F2A44" style="font-family:Arial,Helvetica,sans-serif;font-size:18px;font-weight:700;"><tspan x="400" dy="0">1. DocumentProcessingResult</tspan></text><text x="138" y="140" text-anchor="start" fill="#1F2A44" style="font-family:Arial,Helvetica,sans-serif;font-size:14px;font-weight:400;"><tspan x="138" dy="0">- pages</tspan><tspan x="138" dy="24">- article_segmentation</tspan></text><text x="138" y="220" text-anchor="start" fill="#9AA7BE" style="font-family:Arial,Helvetica,sans-serif;font-size:14px;font-weight:400;"><tspan x="138" dy="0" font-style="italic"></tspan></text><rect x="120" y="350" width="550" height="268" rx="12" ry="12" fill="#FFFFFF" stroke="#5B6F95" stroke-width="2" /><rect x="120" y="350" width="550" height="60" rx="12" ry="12" fill="#F4F7FC" stroke="#5B6F95" stroke-width="2" /><line x1="120" y1="410" x2="670" y2="410" stroke="#5B6F95" stroke-width="2" /><line x1="120" y1="562" x2="670" y2="562" stroke="#5B6F95" stroke-width="2" /><text x="395" y="378" text-anchor="middle" fill="#1F2A44" style="font-family:Arial,Helvetica,sans-serif;font-size:18px;font-weight:700;"><tspan x="395" dy="0">2. PageProcessingResult</tspan></text><text x="138" y="440" text-anchor="start" fill="#1F2A44" style="font-family:Arial,Helvetica,sans-serif;font-size:14px;font-weight:400;"><tspan x="138" dy="0">- page_number</tspan><tspan x="138" dy="24">- has_text</tspan><tspan x="138" dy="24">- text</tspan><tspan x="138" dy="24">- layout_analysis</tspan><tspan x="138" dy="24">- text_block_content</tspan></text><text x="138" y="592" text-anchor="start" fill="#9AA7BE" style="font-family:Arial,Helvetica,sans-serif;font-size:14px;font-weight:400;"><tspan x="138" dy="0" font-style="italic"></tspan></text><rect x="120" y="900" width="550" height="220" rx="12" ry="12" fill="#FFFFFF" stroke="#5B6F95" stroke-width="2" /><rect x="120" y="900" width="550" height="60" rx="12" ry="12" fill="#F4F7FC" stroke="#5B6F95" stroke-width="2" /><line x1="120" y1="960" x2="670" y2="960" stroke="#5B6F95" stroke-width="2" /><line x1="120" y1="1064" x2="670" y2="1064" stroke="#5B6F95" stroke-width="2" /><text x="395" y="928" text-anchor="middle" fill="#1F2A44" style="font-family:Arial,Helvetica,sans-serif;font-size:18px;font-weight:700;"><tspan x="395" dy="0">3. LayoutAnalysisResponse</tspan></text><text x="138" y="990" text-anchor="start" fill="#1F2A44" style="font-family:Arial,Helvetica,sans-serif;font-size:14px;font-weight:400;"><tspan x="138" dy="0">- analysis_id</tspan><tspan x="138" dy="24">- visualization_url</tspan><tspan x="138" dy="24">- blocks</tspan></text><text x="138" y="1094" text-anchor="start" fill="#9AA7BE" style="font-family:Arial,Helvetica,sans-serif;font-size:14px;font-weight:400;"><tspan x="138" dy="0" font-style="italic"></tspan></text><rect x="120" y="1370" width="550" height="292" rx="12" ry="12" fill="#FFFFFF" stroke="#5B6F95" stroke-width="2" /><rect x="120" y="1370" width="550" height="60" rx="12" ry="12" fill="#F4F7FC" stroke="#5B6F95" stroke-width="2" /><line x1="120" y1="1430" x2="670" y2="1430" stroke="#5B6F95" stroke-width="2" /><line x1="120" y1="1606" x2="670" y2="1606" stroke="#5B6F95" stroke-width="2" /><text x="395" y="1398" text-anchor="middle" fill="#1F2A44" style="font-family:Arial,Helvetica,sans-serif;font-size:18px;font-weight:700;"><tspan x="395" dy="0">4. LayoutBlock</tspan></text><text x="138" y="1460" text-anchor="start" fill="#1F2A44" style="font-family:Arial,Helvetica,sans-serif;font-size:14px;font-weight:400;"><tspan x="138" dy="0">- type</tspan><tspan x="138" dy="24">- bbox</tspan><tspan x="138" dy="24">- confidence</tspan><tspan x="138" dy="24">- reading_order</tspan><tspan x="138" dy="24">- text</tspan><tspan x="138" dy="24">- latex</tspan></text><text x="138" y="1636" text-anchor="start" fill="#9AA7BE" style="font-family:Arial,Helvetica,sans-serif;font-size:14px;font-weight:400;"><tspan x="138" dy="0" font-style="italic"></tspan></text><rect x="120" y="1970" width="550" height="268" rx="12" ry="12" fill="#FFFFFF" stroke="#5B6F95" stroke-width="2" /><rect x="120" y="1970" width="550" height="60" rx="12" ry="12" fill="#F4F7FC" stroke="#5B6F95" stroke-width="2" /><line x1="120" y1="2030" x2="670" y2="2030" stroke="#5B6F95" stroke-width="2" /><line x1="120" y1="2182" x2="670" y2="2182" stroke="#5B6F95" stroke-width="2" /><text x="395" y="1998" text-anchor="middle" fill="#1F2A44" style="font-family:Arial,Helvetica,sans-serif;font-size:18px;font-weight:700;"><tspan x="395" dy="0">5. Block</tspan></text><text x="138" y="2060" text-anchor="start" fill="#1F2A44" style="font-family:Arial,Helvetica,sans-serif;font-size:14px;font-weight:400;"><tspan x="138" dy="0">- block_id</tspan><tspan x="138" dy="24">- type</tspan><tspan x="138" dy="24">- route_to</tspan><tspan x="138" dy="24">- seed_text</tspan><tspan x="138" dy="24">- seed_latex</tspan></text><text x="138" y="2212" text-anchor="start" fill="#9AA7BE" style="font-family:Arial,Helvetica,sans-serif;font-size:14px;font-weight:400;"><tspan x="138" dy="0" font-style="italic"></tspan></text><rect x="960" y="290" width="380" height="316" rx="12" ry="12" fill="#FFFFFF" stroke="#5B6F95" stroke-width="2" /><rect x="960" y="290" width="380" height="60" rx="12" ry="12" fill="#F4F7FC" stroke="#5B6F95" stroke-width="2" /><line x1="960" y1="350" x2="1340" y2="350" stroke="#5B6F95" stroke-width="2" /><line x1="960" y1="550" x2="1340" y2="550" stroke="#5B6F95" stroke-width="2" /><text x="1150" y="318" text-anchor="middle" fill="#1F2A44" style="font-family:Arial,Helvetica,sans-serif;font-size:18px;font-weight:700;"><tspan x="1150" dy="0">6. ProcessedBlock</tspan></text><text x="978" y="380" text-anchor="start" fill="#1F2A44" style="font-family:Arial,Helvetica,sans-serif;font-size:14px;font-weight:400;"><tspan x="978" dy="0">- block_id</tspan><tspan x="978" dy="24">- type</tspan><tspan x="978" dy="24">- route_to</tspan><tspan x="978" dy="24">- content</tspan><tspan x="978" dy="24">- latex</tspan><tspan x="978" dy="24">- confidence</tspan><tspan x="978" dy="24">- needs_review</tspan></text><text x="978" y="580" text-anchor="start" fill="#9AA7BE" style="font-family:Arial,Helvetica,sans-serif;font-size:14px;font-weight:400;"><tspan x="978" dy="0" font-style="italic"></tspan></text><rect x="1460" y="310" width="280" height="196" rx="12" ry="12" fill="#FFFFFF" stroke="#5B6F95" stroke-width="2" /><rect x="1460" y="310" width="280" height="60" rx="12" ry="12" fill="#F4F7FC" stroke="#5B6F95" stroke-width="2" /><line x1="1460" y1="370" x2="1740" y2="370" stroke="#5B6F95" stroke-width="2" /><line x1="1460" y1="450" x2="1740" y2="450" stroke="#5B6F95" stroke-width="2" /><text x="1600" y="338" text-anchor="middle" fill="#1F2A44" style="font-family:Arial,Helvetica,sans-serif;font-size:18px;font-weight:700;"><tspan x="1600" dy="0">7. OCRResult</tspan></text><text x="1478" y="400" text-anchor="start" fill="#1F2A44" style="font-family:Arial,Helvetica,sans-serif;font-size:14px;font-weight:400;"><tspan x="1478" dy="0">- text</tspan><tspan x="1478" dy="24">- confidence</tspan></text><text x="1478" y="480" text-anchor="start" fill="#9AA7BE" style="font-family:Arial,Helvetica,sans-serif;font-size:14px;font-weight:400;"><tspan x="1478" dy="0" font-style="italic"></tspan></text><rect x="1860" y="310" width="330" height="196" rx="12" ry="12" fill="#FFFFFF" stroke="#5B6F95" stroke-width="2" /><rect x="1860" y="310" width="330" height="60" rx="12" ry="12" fill="#F4F7FC" stroke="#5B6F95" stroke-width="2" /><line x1="1860" y1="370" x2="2190" y2="370" stroke="#5B6F95" stroke-width="2" /><line x1="1860" y1="450" x2="2190" y2="450" stroke="#5B6F95" stroke-width="2" /><text x="2025" y="338" text-anchor="middle" fill="#1F2A44" style="font-family:Arial,Helvetica,sans-serif;font-size:18px;font-weight:700;"><tspan x="2025" dy="0">8. FormulaOCRResult</tspan></text><text x="1878" y="400" text-anchor="start" fill="#1F2A44" style="font-family:Arial,Helvetica,sans-serif;font-size:14px;font-weight:400;"><tspan x="1878" dy="0">- latex</tspan><tspan x="1878" dy="24">- confidence</tspan></text><text x="1878" y="480" text-anchor="start" fill="#9AA7BE" style="font-family:Arial,Helvetica,sans-serif;font-size:14px;font-weight:400;"><tspan x="1878" dy="0" font-style="italic"></tspan></text><rect x="1640" y="820" width="380" height="220" rx="12" ry="12" fill="#FFFFFF" stroke="#5B6F95" stroke-width="2" /><rect x="1640" y="820" width="380" height="60" rx="12" ry="12" fill="#F4F7FC" stroke="#5B6F95" stroke-width="2" /><line x1="1640" y1="880" x2="2020" y2="880" stroke="#5B6F95" stroke-width="2" /><line x1="1640" y1="984" x2="2020" y2="984" stroke="#5B6F95" stroke-width="2" /><text x="1830" y="848" text-anchor="middle" fill="#1F2A44" style="font-family:Arial,Helvetica,sans-serif;font-size:18px;font-weight:700;"><tspan x="1830" dy="0">9. PagePresentation</tspan></text><text x="1658" y="910" text-anchor="start" fill="#1F2A44" style="font-family:Arial,Helvetica,sans-serif;font-size:14px;font-weight:400;"><tspan x="1658" dy="0">- readable_text</tspan><tspan x="1658" dy="24">- tex_preview</tspan><tspan x="1658" dy="24">- latex_document</tspan></text><text x="1658" y="1014" text-anchor="start" fill="#9AA7BE" style="font-family:Arial,Helvetica,sans-serif;font-size:14px;font-weight:400;"><tspan x="1658" dy="0" font-style="italic"></tspan></text><rect x="1580" y="1230" width="440" height="340" rx="12" ry="12" fill="#FFFFFF" stroke="#5B6F95" stroke-width="2" /><rect x="1580" y="1230" width="440" height="60" rx="12" ry="12" fill="#F4F7FC" stroke="#5B6F95" stroke-width="2" /><line x1="1580" y1="1290" x2="2020" y2="1290" stroke="#5B6F95" stroke-width="2" /><line x1="1580" y1="1514" x2="2020" y2="1514" stroke="#5B6F95" stroke-width="2" /><text x="1800" y="1258" text-anchor="middle" fill="#1F2A44" style="font-family:Arial,Helvetica,sans-serif;font-size:18px;font-weight:700;"><tspan x="1800" dy="0">10. PageContent</tspan></text><text x="1598" y="1320" text-anchor="start" fill="#1F2A44" style="font-family:Arial,Helvetica,sans-serif;font-size:14px;font-weight:400;"><tspan x="1598" dy="0">- page_content_id</tspan><tspan x="1598" dy="24">- page_number</tspan><tspan x="1598" dy="24">- page_text</tspan><tspan x="1598" dy="24">- historical_text</tspan><tspan x="1598" dy="24">- normalized_text</tspan><tspan x="1598" dy="24">- needs_review_count</tspan><tspan x="1598" dy="24">- presentation</tspan><tspan x="1598" dy="24">- blocks</tspan></text><text x="1598" y="1544" text-anchor="start" fill="#9AA7BE" style="font-family:Arial,Helvetica,sans-serif;font-size:14px;font-weight:400;"><tspan x="1598" dy="0" font-style="italic"></tspan></text><rect x="890" y="1160" width="500" height="244" rx="12" ry="12" fill="#FFFFFF" stroke="#5B6F95" stroke-width="2" /><rect x="890" y="1160" width="500" height="60" rx="12" ry="12" fill="#F4F7FC" stroke="#5B6F95" stroke-width="2" /><line x1="890" y1="1220" x2="1390" y2="1220" stroke="#5B6F95" stroke-width="2" /><line x1="890" y1="1348" x2="1390" y2="1348" stroke="#5B6F95" stroke-width="2" /><text x="1140" y="1188" text-anchor="middle" fill="#1F2A44" style="font-family:Arial,Helvetica,sans-serif;font-size:18px;font-weight:700;"><tspan x="1140" dy="0">11. TextPostprocessResponse</tspan></text><text x="908" y="1250" text-anchor="start" fill="#1F2A44" style="font-family:Arial,Helvetica,sans-serif;font-size:14px;font-weight:400;"><tspan x="908" dy="0">- cleaned_text</tspan><tspan x="908" dy="24">- corrections</tspan><tspan x="908" dy="24">- suspicious_tokens</tspan><tspan x="908" dy="24">- needs_review</tspan></text><text x="908" y="1378" text-anchor="start" fill="#9AA7BE" style="font-family:Arial,Helvetica,sans-serif;font-size:14px;font-weight:400;"><tspan x="908" dy="0" font-style="italic"></tspan></text><rect x="780" y="1970" width="430" height="244" rx="12" ry="12" fill="#FFFFFF" stroke="#5B6F95" stroke-width="2" /><rect x="780" y="1970" width="430" height="60" rx="12" ry="12" fill="#F4F7FC" stroke="#5B6F95" stroke-width="2" /><line x1="780" y1="2030" x2="1210" y2="2030" stroke="#5B6F95" stroke-width="2" /><line x1="780" y1="2158" x2="1210" y2="2158" stroke="#5B6F95" stroke-width="2" /><text x="995" y="1998" text-anchor="middle" fill="#1F2A44" style="font-family:Arial,Helvetica,sans-serif;font-size:18px;font-weight:700;"><tspan x="995" dy="0">12. HistoricalSpellingMatch</tspan></text><text x="798" y="2060" text-anchor="start" fill="#1F2A44" style="font-family:Arial,Helvetica,sans-serif;font-size:14px;font-weight:400;"><tspan x="798" dy="0">- source_token</tspan><tspan x="798" dy="24">- normalized_token</tspan><tspan x="798" dy="24">- rule_id</tspan><tspan x="798" dy="24">- confidence</tspan></text><text x="798" y="2188" text-anchor="start" fill="#9AA7BE" style="font-family:Arial,Helvetica,sans-serif;font-size:14px;font-weight:400;"><tspan x="798" dy="0" font-style="italic"></tspan></text><rect x="1480" y="1950" width="560" height="268" rx="12" ry="12" fill="#FFFFFF" stroke="#5B6F95" stroke-width="2" /><rect x="1480" y="1950" width="560" height="60" rx="12" ry="12" fill="#F4F7FC" stroke="#5B6F95" stroke-width="2" /><line x1="1480" y1="2010" x2="2040" y2="2010" stroke="#5B6F95" stroke-width="2" /><line x1="1480" y1="2162" x2="2040" y2="2162" stroke="#5B6F95" stroke-width="2" /><text x="1760" y="1978" text-anchor="middle" fill="#1F2A44" style="font-family:Arial,Helvetica,sans-serif;font-size:18px;font-weight:700;"><tspan x="1760" dy="0">13. OrthographyNormalizationResult</tspan></text><text x="1498" y="2040" text-anchor="start" fill="#1F2A44" style="font-family:Arial,Helvetica,sans-serif;font-size:14px;font-weight:400;"><tspan x="1498" dy="0">- historical_text</tspan><tspan x="1498" dy="24">- normalized_text</tspan><tspan x="1498" dy="24">- matches</tspan><tspan x="1498" dy="24">- ambiguous_fragments</tspan><tspan x="1498" dy="24">- needs_review</tspan></text><text x="1498" y="2192" text-anchor="start" fill="#9AA7BE" style="font-family:Arial,Helvetica,sans-serif;font-size:14px;font-weight:400;"><tspan x="1498" dy="0" font-style="italic"></tspan></text><rect x="2280" y="90" width="420" height="244" rx="12" ry="12" fill="#FFFFFF" stroke="#5B6F95" stroke-width="2" /><rect x="2280" y="90" width="420" height="60" rx="12" ry="12" fill="#F4F7FC" stroke="#5B6F95" stroke-width="2" /><line x1="2280" y1="150" x2="2700" y2="150" stroke="#5B6F95" stroke-width="2" /><line x1="2280" y1="278" x2="2700" y2="278" stroke="#5B6F95" stroke-width="2" /><text x="2490" y="118" text-anchor="middle" fill="#1F2A44" style="font-family:Arial,Helvetica,sans-serif;font-size:18px;font-weight:700;"><tspan x="2490" dy="0">14. ArticleBoundary</tspan></text><text x="2298" y="180" text-anchor="start" fill="#1F2A44" style="font-family:Arial,Helvetica,sans-serif;font-size:14px;font-weight:400;"><tspan x="2298" dy="0">- page_number</tspan><tspan x="2298" dy="24">- is_article_start</tspan><tspan x="2298" dy="24">- score</tspan><tspan x="2298" dy="24">- needs_review</tspan></text><text x="2298" y="308" text-anchor="start" fill="#9AA7BE" style="font-family:Arial,Helvetica,sans-serif;font-size:14px;font-weight:400;"><tspan x="2298" dy="0" font-style="italic"></tspan></text><rect x="2810" y="90" width="430" height="268" rx="12" ry="12" fill="#FFFFFF" stroke="#5B6F95" stroke-width="2" /><rect x="2810" y="90" width="430" height="60" rx="12" ry="12" fill="#F4F7FC" stroke="#5B6F95" stroke-width="2" /><line x1="2810" y1="150" x2="3240" y2="150" stroke="#5B6F95" stroke-width="2" /><line x1="2810" y1="302" x2="3240" y2="302" stroke="#5B6F95" stroke-width="2" /><text x="3025" y="118" text-anchor="middle" fill="#1F2A44" style="font-family:Arial,Helvetica,sans-serif;font-size:18px;font-weight:700;"><tspan x="3025" dy="0">15. ArticlePreview</tspan></text><text x="2828" y="180" text-anchor="start" fill="#1F2A44" style="font-family:Arial,Helvetica,sans-serif;font-size:14px;font-weight:400;"><tspan x="2828" dy="0">- article_id</tspan><tspan x="2828" dy="24">- start_page</tspan><tspan x="2828" dy="24">- end_page</tspan><tspan x="2828" dy="24">- title_preview</tspan><tspan x="2828" dy="24">- boundary_confidence</tspan></text><text x="2828" y="332" text-anchor="start" fill="#9AA7BE" style="font-family:Arial,Helvetica,sans-serif;font-size:14px;font-weight:400;"><tspan x="2828" dy="0" font-style="italic"></tspan></text><rect x="2420" y="580" width="520" height="268" rx="12" ry="12" fill="#FFFFFF" stroke="#5B6F95" stroke-width="2" /><rect x="2420" y="580" width="520" height="60" rx="12" ry="12" fill="#F4F7FC" stroke="#5B6F95" stroke-width="2" /><line x1="2420" y1="640" x2="2940" y2="640" stroke="#5B6F95" stroke-width="2" /><line x1="2420" y1="792" x2="2940" y2="792" stroke="#5B6F95" stroke-width="2" /><text x="2680" y="608" text-anchor="middle" fill="#1F2A44" style="font-family:Arial,Helvetica,sans-serif;font-size:18px;font-weight:700;"><tspan x="2680" dy="0">16. ArticleSegmentationResult</tspan></text><text x="2438" y="670" text-anchor="start" fill="#1F2A44" style="font-family:Arial,Helvetica,sans-serif;font-size:14px;font-weight:400;"><tspan x="2438" dy="0">- total_pages</tspan><tspan x="2438" dy="24">- article_count</tspan><tspan x="2438" dy="24">- needs_review_count</tspan><tspan x="2438" dy="24">- boundaries</tspan><tspan x="2438" dy="24">- articles</tspan></text><text x="2438" y="822" text-anchor="start" fill="#9AA7BE" style="font-family:Arial,Helvetica,sans-serif;font-size:14px;font-weight:400;"><tspan x="2438" dy="0" font-style="italic"></tspan></text><rect x="2340" y="1190" width="440" height="388" rx="12" ry="12" fill="#FFFFFF" stroke="#5B6F95" stroke-width="2" /><rect x="2340" y="1190" width="440" height="60" rx="12" ry="12" fill="#F4F7FC" stroke="#5B6F95" stroke-width="2" /><line x1="2340" y1="1250" x2="2780" y2="1250" stroke="#5B6F95" stroke-width="2" /><line x1="2340" y1="1522" x2="2780" y2="1522" stroke="#5B6F95" stroke-width="2" /><text x="2560" y="1218" text-anchor="middle" fill="#1F2A44" style="font-family:Arial,Helvetica,sans-serif;font-size:18px;font-weight:700;"><tspan x="2560" dy="0">18. ArticleContent</tspan></text><text x="2358" y="1280" text-anchor="start" fill="#1F2A44" style="font-family:Arial,Helvetica,sans-serif;font-size:14px;font-weight:400;"><tspan x="2358" dy="0">- article_id</tspan><tspan x="2358" dy="24">- page_numbers</tspan><tspan x="2358" dy="24">- title</tspan><tspan x="2358" dy="24">- author</tspan><tspan x="2358" dy="24">- article_text</tspan><tspan x="2358" dy="24">- historical_text</tspan><tspan x="2358" dy="24">- normalized_text</tspan><tspan x="2358" dy="24">- pages</tspan><tspan x="2358" dy="24">- blocks</tspan><tspan x="2358" dy="24">- metadata</tspan></text><text x="2358" y="1552" text-anchor="start" fill="#9AA7BE" style="font-family:Arial,Helvetica,sans-serif;font-size:14px;font-weight:400;"><tspan x="2358" dy="0" font-style="italic"></tspan></text><rect x="3020" y="1380" width="340" height="220" rx="12" ry="12" fill="#FFFFFF" stroke="#5B6F95" stroke-width="2" /><rect x="3020" y="1380" width="340" height="60" rx="12" ry="12" fill="#F4F7FC" stroke="#5B6F95" stroke-width="2" /><line x1="3020" y1="1440" x2="3360" y2="1440" stroke="#5B6F95" stroke-width="2" /><line x1="3020" y1="1544" x2="3360" y2="1544" stroke="#5B6F95" stroke-width="2" /><text x="3190" y="1408" text-anchor="middle" fill="#1F2A44" style="font-family:Arial,Helvetica,sans-serif;font-size:18px;font-weight:700;"><tspan x="3190" dy="0">17. LatexMetadata</tspan></text><text x="3038" y="1470" text-anchor="start" fill="#1F2A44" style="font-family:Arial,Helvetica,sans-serif;font-size:14px;font-weight:400;"><tspan x="3038" dy="0">- title</tspan><tspan x="3038" dy="24">- author</tspan><tspan x="3038" dy="24">- documentclass</tspan></text><text x="3038" y="1574" text-anchor="start" fill="#9AA7BE" style="font-family:Arial,Helvetica,sans-serif;font-size:14px;font-weight:400;"><tspan x="3038" dy="0" font-style="italic"></tspan></text><rect x="2340" y="2040" width="380" height="220" rx="12" ry="12" fill="#FFFFFF" stroke="#5B6F95" stroke-width="2" /><rect x="2340" y="2040" width="380" height="60" rx="12" ry="12" fill="#F4F7FC" stroke="#5B6F95" stroke-width="2" /><line x1="2340" y1="2100" x2="2720" y2="2100" stroke="#5B6F95" stroke-width="2" /><line x1="2340" y1="2204" x2="2720" y2="2204" stroke="#5B6F95" stroke-width="2" /><text x="2530" y="2068" text-anchor="middle" fill="#1F2A44" style="font-family:Arial,Helvetica,sans-serif;font-size:18px;font-weight:700;"><tspan x="2530" dy="0">19. LatexDocumentResult</tspan></text><text x="2358" y="2130" text-anchor="start" fill="#1F2A44" style="font-family:Arial,Helvetica,sans-serif;font-size:14px;font-weight:400;"><tspan x="2358" dy="0">- latex_preview</tspan><tspan x="2358" dy="24">- latex_document</tspan><tspan x="2358" dy="24">- needs_review</tspan></text><text x="2358" y="2234" text-anchor="start" fill="#9AA7BE" style="font-family:Arial,Helvetica,sans-serif;font-size:14px;font-weight:400;"><tspan x="2358" dy="0" font-style="italic"></tspan></text><rect x="2820" y="2060" width="340" height="220" rx="12" ry="12" fill="#FFFFFF" stroke="#5B6F95" stroke-width="2" /><rect x="2820" y="2060" width="340" height="60" rx="12" ry="12" fill="#F4F7FC" stroke="#5B6F95" stroke-width="2" /><line x1="2820" y1="2120" x2="3160" y2="2120" stroke="#5B6F95" stroke-width="2" /><line x1="2820" y1="2224" x2="3160" y2="2224" stroke="#5B6F95" stroke-width="2" /><text x="2990" y="2088" text-anchor="middle" fill="#1F2A44" style="font-family:Arial,Helvetica,sans-serif;font-size:18px;font-weight:700;"><tspan x="2990" dy="0">20. ReadablePdfSection</tspan></text><text x="2838" y="2150" text-anchor="start" fill="#1F2A44" style="font-family:Arial,Helvetica,sans-serif;font-size:14px;font-weight:400;"><tspan x="2838" dy="0">- heading</tspan><tspan x="2838" dy="24">- note</tspan><tspan x="2838" dy="24">- blocks</tspan></text><text x="2838" y="2254" text-anchor="start" fill="#9AA7BE" style="font-family:Arial,Helvetica,sans-serif;font-size:14px;font-weight:400;"><tspan x="2838" dy="0" font-style="italic"></tspan></text><rect x="3240" y="2080" width="300" height="220" rx="12" ry="12" fill="#FFFFFF" stroke="#5B6F95" stroke-width="2" /><rect x="3240" y="2080" width="300" height="60" rx="12" ry="12" fill="#F4F7FC" stroke="#5B6F95" stroke-width="2" /><line x1="3240" y1="2140" x2="3540" y2="2140" stroke="#5B6F95" stroke-width="2" /><line x1="3240" y1="2244" x2="3540" y2="2244" stroke="#5B6F95" stroke-width="2" /><text x="3390" y="2108" text-anchor="middle" fill="#1F2A44" style="font-family:Arial,Helvetica,sans-serif;font-size:18px;font-weight:700;"><tspan x="3390" dy="0">21. ReadablePdfBlock</tspan></text><text x="3258" y="2170" text-anchor="start" fill="#1F2A44" style="font-family:Arial,Helvetica,sans-serif;font-size:14px;font-weight:400;"><tspan x="3258" dy="0">- kind</tspan><tspan x="3258" dy="24">- text</tspan><tspan x="3258" dy="24">- image_data_url</tspan></text><text x="3258" y="2274" text-anchor="start" fill="#9AA7BE" style="font-family:Arial,Helvetica,sans-serif;font-size:14px;font-weight:400;"><tspan x="3258" dy="0" font-style="italic"></tspan></text><rect x="3490" y="90" width="620" height="220" rx="12" ry="12" fill="#FBFCFF" stroke="#5B6F95" stroke-width="2" /><rect x="3490" y="90" width="620" height="84" rx="12" ry="12" fill="#F4F7FC" stroke="#5B6F95" stroke-width="2" /><line x1="3490" y1="174" x2="4110" y2="174" stroke="#5B6F95" stroke-width="2" /><line x1="3490" y1="230" x2="4110" y2="230" stroke="#5B6F95" stroke-width="2" /><text x="3800" y="118" text-anchor="middle" fill="#1F2A44" style="font-family:Arial,Helvetica,sans-serif;font-size:18px;font-weight:700;"><tspan x="3800" dy="0">22. PDFProcessor</tspan><tspan x="3800" dy="24" font-style="italic">&lt;&lt;service&gt;&gt;</tspan></text><text x="3508" y="204" text-anchor="start" fill="#1F2A44" style="font-family:Arial,Helvetica,sans-serif;font-size:14px;font-weight:400;"><tspan x="3508" dy="0"></tspan></text><text x="3508" y="260" text-anchor="start" fill="#5C6B87" style="font-family:Arial,Helvetica,sans-serif;font-size:14px;font-weight:400;"><tspan x="3508" dy="0">+ process_pdf_document()</tspan><tspan x="3508" dy="24">+ iter_pdf_processing_events()</tspan></text><rect x="3490" y="640" width="620" height="220" rx="12" ry="12" fill="#FBFCFF" stroke="#5B6F95" stroke-width="2" /><rect x="3490" y="640" width="620" height="84" rx="12" ry="12" fill="#F4F7FC" stroke="#5B6F95" stroke-width="2" /><line x1="3490" y1="724" x2="4110" y2="724" stroke="#5B6F95" stroke-width="2" /><line x1="3490" y1="780" x2="4110" y2="780" stroke="#5B6F95" stroke-width="2" /><text x="3800" y="668" text-anchor="middle" fill="#1F2A44" style="font-family:Arial,Helvetica,sans-serif;font-size:18px;font-weight:700;"><tspan x="3800" dy="0">23. TextPostprocessor</tspan><tspan x="3800" dy="24" font-style="italic">&lt;&lt;service&gt;&gt;</tspan></text><text x="3508" y="754" text-anchor="start" fill="#1F2A44" style="font-family:Arial,Helvetica,sans-serif;font-size:14px;font-weight:400;"><tspan x="3508" dy="0"></tspan></text><text x="3508" y="810" text-anchor="start" fill="#5C6B87" style="font-family:Arial,Helvetica,sans-serif;font-size:14px;font-weight:400;"><tspan x="3508" dy="0">+ clean_text()</tspan><tspan x="3508" dy="24">+ correct_ocr_errors()</tspan></text><rect x="3470" y="1120" width="650" height="268" rx="12" ry="12" fill="#FBFCFF" stroke="#5B6F95" stroke-width="2" /><rect x="3470" y="1120" width="650" height="84" rx="12" ry="12" fill="#F4F7FC" stroke="#5B6F95" stroke-width="2" /><line x1="3470" y1="1204" x2="4120" y2="1204" stroke="#5B6F95" stroke-width="2" /><line x1="3470" y1="1260" x2="4120" y2="1260" stroke="#5B6F95" stroke-width="2" /><text x="3795" y="1148" text-anchor="middle" fill="#1F2A44" style="font-family:Arial,Helvetica,sans-serif;font-size:18px;font-weight:700;"><tspan x="3795" dy="0">24. PreReformOrthographyProcessor</tspan><tspan x="3795" dy="24" font-style="italic">&lt;&lt;service&gt;&gt;</tspan></text><text x="3488" y="1234" text-anchor="start" fill="#1F2A44" style="font-family:Arial,Helvetica,sans-serif;font-size:14px;font-weight:400;"><tspan x="3488" dy="0"></tspan></text><text x="3488" y="1290" text-anchor="start" fill="#5C6B87" style="font-family:Arial,Helvetica,sans-serif;font-size:14px;font-weight:400;"><tspan x="3488" dy="0">+ detect_historical_spelling()</tspan><tspan x="3488" dy="24">+ translate_to_modern()</tspan><tspan x="3488" dy="24">+ preserve_original_form()</tspan><tspan x="3488" dy="24">+ build_dual_text_layer()</tspan></text><rect x="3490" y="1680" width="620" height="196" rx="12" ry="12" fill="#FBFCFF" stroke="#5B6F95" stroke-width="2" /><rect x="3490" y="1680" width="620" height="84" rx="12" ry="12" fill="#F4F7FC" stroke="#5B6F95" stroke-width="2" /><line x1="3490" y1="1764" x2="4110" y2="1764" stroke="#5B6F95" stroke-width="2" /><line x1="3490" y1="1820" x2="4110" y2="1820" stroke="#5B6F95" stroke-width="2" /><text x="3800" y="1708" text-anchor="middle" fill="#1F2A44" style="font-family:Arial,Helvetica,sans-serif;font-size:18px;font-weight:700;"><tspan x="3800" dy="0">25. ArticleSegmenter</tspan><tspan x="3800" dy="24" font-style="italic">&lt;&lt;service&gt;&gt;</tspan></text><text x="3508" y="1794" text-anchor="start" fill="#1F2A44" style="font-family:Arial,Helvetica,sans-serif;font-size:14px;font-weight:400;"><tspan x="3508" dy="0"></tspan></text><text x="3508" y="1850" text-anchor="start" fill="#5C6B87" style="font-family:Arial,Helvetica,sans-serif;font-size:14px;font-weight:400;"><tspan x="3508" dy="0">+ segment_document_into_articles()</tspan></text><rect x="3470" y="2120" width="650" height="196" rx="12" ry="12" fill="#FBFCFF" stroke="#5B6F95" stroke-width="2" /><rect x="3470" y="2120" width="650" height="84" rx="12" ry="12" fill="#F4F7FC" stroke="#5B6F95" stroke-width="2" /><line x1="3470" y1="2204" x2="4120" y2="2204" stroke="#5B6F95" stroke-width="2" /><line x1="3470" y1="2260" x2="4120" y2="2260" stroke="#5B6F95" stroke-width="2" /><text x="3795" y="2148" text-anchor="middle" fill="#1F2A44" style="font-family:Arial,Helvetica,sans-serif;font-size:18px;font-weight:700;"><tspan x="3795" dy="0">26. LatexBuilder</tspan><tspan x="3795" dy="24" font-style="italic">&lt;&lt;service&gt;&gt;</tspan></text><text x="3488" y="2234" text-anchor="start" fill="#1F2A44" style="font-family:Arial,Helvetica,sans-serif;font-size:14px;font-weight:400;"><tspan x="3488" dy="0"></tspan></text><text x="3488" y="2290" text-anchor="start" fill="#5C6B87" style="font-family:Arial,Helvetica,sans-serif;font-size:14px;font-weight:400;"><tspan x="3488" dy="0">+ build_latex_document()</tspan></text><rect x="3490" y="2390" width="620" height="196" rx="12" ry="12" fill="#FBFCFF" stroke="#5B6F95" stroke-width="2" /><rect x="3490" y="2390" width="620" height="84" rx="12" ry="12" fill="#F4F7FC" stroke="#5B6F95" stroke-width="2" /><line x1="3490" y1="2474" x2="4110" y2="2474" stroke="#5B6F95" stroke-width="2" /><line x1="3490" y1="2530" x2="4110" y2="2530" stroke="#5B6F95" stroke-width="2" /><text x="3800" y="2418" text-anchor="middle" fill="#1F2A44" style="font-family:Arial,Helvetica,sans-serif;font-size:18px;font-weight:700;"><tspan x="3800" dy="0">27. ReadablePdfExporter</tspan><tspan x="3800" dy="24" font-style="italic">&lt;&lt;service&gt;&gt;</tspan></text><text x="3508" y="2504" text-anchor="start" fill="#1F2A44" style="font-family:Arial,Helvetica,sans-serif;font-size:14px;font-weight:400;"><tspan x="3508" dy="0"></tspan></text><text x="3508" y="2560" text-anchor="start" fill="#5C6B87" style="font-family:Arial,Helvetica,sans-serif;font-size:14px;font-weight:400;"><tspan x="3508" dy="0">+ export_readable_pdf()</tspan></text></svg>