<svg xmlns="http://www.w3.org/2000/svg" width="5400" height="1580" viewBox="0 0 5400 1580">
<rect x="140" y="280" width="5120" height="1220" rx="34" ry="34" fill="#F8FAFC" stroke="#CBD5E1" stroke-width="4" />
<line x1="330" y1="280" x2="330" y2="1500" stroke="#CBD5E1" stroke-width="3" />
<text x="235" y="850.0" font-size="30" font-weight="700" text-anchor="middle" fill="#1F2937" font-family="Arial">Модуль</text>
<text x="235" y="886.0" font-size="30" font-weight="700" text-anchor="middle" fill="#1F2937" font-family="Arial">OCR</text>
<text x="235" y="922.0" font-size="30" font-weight="700" text-anchor="middle" fill="#1F2937" font-family="Arial">текстовых</text>
<text x="235" y="958.0" font-size="30" font-weight="700" text-anchor="middle" fill="#1F2937" font-family="Arial">блоков</text>
<polyline points="362,900 460,900" fill="none" stroke="#55637D" stroke-width="6" stroke-linecap="round" stroke-linejoin="round" />
<polygon points="460,900 438,887 438,913" fill="#55637D" />
<polyline points="820,900 960,900" fill="none" stroke="#55637D" stroke-width="6" stroke-linecap="round" stroke-linejoin="round" />
<polygon points="960,900 938,887 938,913" fill="#55637D" />
<polyline points="1320,900 1420,900" fill="none" stroke="#55637D" stroke-width="6" stroke-linecap="round" stroke-linejoin="round" />
<polygon points="1420,900 1398,887 1398,913" fill="#55637D" />
<text x="1280" y="852" font-size="22" font-weight="700" fill="#667085" font-family="Arial">цикл по блокам</text>
<polyline points="1466,900 1466,600 1510,600" fill="none" stroke="#55637D" stroke-width="6" stroke-linecap="round" stroke-linejoin="round" />
<polygon points="1510,600 1488,587 1488,613" fill="#55637D" />
<text x="1450" y="690" font-size="22" font-weight="700" fill="#667085" font-family="Arial">нет</text>
<polyline points="1420,946 1420,1220 1510,1220" fill="none" stroke="#55637D" stroke-width="6" stroke-linecap="round" stroke-linejoin="round" />
<polygon points="1510,1220 1488,1207 1488,1233" fill="#55637D" />
<text x="1350" y="1080" font-size="22" font-weight="700" fill="#667085" font-family="Arial">да</text>
<polyline points="1880,1220 2020,1220" fill="none" stroke="#55637D" stroke-width="6" stroke-linecap="round" stroke-linejoin="round" />
<polygon points="2020,1220 1998,1207 1998,1233" fill="#55637D" />
<polyline points="2390,1220 2460,1220" fill="none" stroke="#55637D" stroke-width="6" stroke-linecap="round" stroke-linejoin="round" />
<polygon points="2460,1220 2438,1207 2438,1233" fill="#55637D" />
<polyline points="2506,1220 3000,1220" fill="none" stroke="#55637D" stroke-width="6" stroke-linecap="round" stroke-linejoin="round" />
<polygon points="3000,1220 2978,1207 2978,1233" fill="#55637D" />
<text x="2665" y="1178" font-size="22" font-weight="700" fill="#667085" font-family="Arial">да</text>
<polyline points="2460,1266 2460,1390 2520,1390" fill="none" stroke="#55637D" stroke-width="6" stroke-linecap="round" stroke-linejoin="round" />
<polygon points="2520,1390 2498,1377 2498,1403" fill="#55637D" />
<text x="2210" y="1355" font-size="22" font-weight="700" fill="#667085" font-family="Arial">ошибка / unavailable</text>
<polyline points="2890,1390 3000,1390 3000,1220" fill="none" stroke="#55637D" stroke-width="6" stroke-linecap="round" stroke-linejoin="round" />
<polygon points="3000,1220 2987,1242 3013,1242" fill="#55637D" />
<polyline points="3046,1220 3130,1220" fill="none" stroke="#55637D" stroke-width="6" stroke-linecap="round" stroke-linejoin="round" />
<polygon points="3130,1220 3108,1207 3108,1233" fill="#55637D" />
<polyline points="3500,1220 3640,1220" fill="none" stroke="#55637D" stroke-width="6" stroke-linecap="round" stroke-linejoin="round" />
<polygon points="3640,1220 3618,1207 3618,1233" fill="#55637D" />
<polyline points="3825,1090 3825,730" fill="none" stroke="#55637D" stroke-width="6" stroke-linecap="round" stroke-linejoin="round" />
<polygon points="3825,730 3812,752 3838,752" fill="#55637D" />
<polyline points="1880,600 3640,600" fill="none" stroke="#55637D" stroke-width="6" stroke-linecap="round" stroke-linejoin="round" />
<polygon points="3640,600 3618,587 3618,613" fill="#55637D" />
<polyline points="4010,580 4180,580" fill="none" stroke="#55637D" stroke-width="6" stroke-linecap="round" stroke-linejoin="round" />
<polygon points="4180,580 4158,567 4158,593" fill="#55637D" />
<text x="4040" y="532" font-size="22" font-weight="700" fill="#667085" font-family="Arial">после всех блоков</text>
<polyline points="4540,580 4680,580" fill="none" stroke="#55637D" stroke-width="6" stroke-linecap="round" stroke-linejoin="round" />
<polygon points="4680,580 4658,567 4658,593" fill="#55637D" />
<polyline points="5060,580 5184,580" fill="none" stroke="#55637D" stroke-width="6" stroke-linecap="round" stroke-linejoin="round" />
<polygon points="5184,580 5162,567 5162,593" fill="#55637D" />
<polygon points="1420,854 1466,900 1420,946 1374,900" fill="#FFF8E8" stroke="#D18B00" stroke-width="5" />
<text x="1420" y="914" font-size="38" font-weight="700" text-anchor="middle" fill="#1F2937" font-family="Arial">X</text>
<polygon points="2460,1174 2506,1220 2460,1266 2414,1220" fill="#FFF8E8" stroke="#D18B00" stroke-width="5" />
<text x="2460" y="1234" font-size="38" font-weight="700" text-anchor="middle" fill="#1F2937" font-family="Arial">X</text>
<polygon points="3000,1174 3046,1220 3000,1266 2954,1220" fill="#FFF8E8" stroke="#D18B00" stroke-width="5" />
<text x="3000" y="1234" font-size="38" font-weight="700" text-anchor="middle" fill="#1F2937" font-family="Arial">X</text>
<rect x="460" y="760" width="360" height="280" rx="34" ry="34" fill="#EEF3FC" stroke="#6078B6" stroke-width="5" />
<text x="640.0" y="863.0" font-size="28" font-weight="700" text-anchor="middle" fill="#1F2937" font-family="Arial">Получить вход</text>
<text x="640.0" y="895.0" font-size="28" font-weight="700" text-anchor="middle" fill="#1F2937" font-family="Arial">страницы</text>
<text x="640.0" y="935.0" font-size="24" text-anchor="middle" fill="#1F2937" font-family="Arial">page_image</text>
<text x="640.0" y="963.0" font-size="24" text-anchor="middle" fill="#1F2937" font-family="Arial">routed_blocks</text>
<rect x="960" y="760" width="360" height="280" rx="34" ry="34" fill="#EEF3FC" stroke="#6078B6" stroke-width="5" />
<text x="1140.0" y="863.0" font-size="28" font-weight="700" text-anchor="middle" fill="#1F2937" font-family="Arial">Отсортировать</text>
<text x="1140.0" y="895.0" font-size="28" font-weight="700" text-anchor="middle" fill="#1F2937" font-family="Arial">блоки</text>
<text x="1140.0" y="935.0" font-size="24" text-anchor="middle" fill="#1F2937" font-family="Arial">reading_order</text>
<text x="1140.0" y="963.0" font-size="24" text-anchor="middle" fill="#1F2937" font-family="Arial">y, x, block_id</text>
<rect x="1510" y="470" width="370" height="260" rx="34" ry="34" fill="#EEF3FC" stroke="#6078B6" stroke-width="5" />
<text x="1695.0" y="563.0" font-size="28" font-weight="700" text-anchor="middle" fill="#1F2937" font-family="Arial">Сохранить</text>
<text x="1695.0" y="595.0" font-size="28" font-weight="700" text-anchor="middle" fill="#1F2937" font-family="Arial">нетекстовый блок</text>
<text x="1695.0" y="635.0" font-size="24" text-anchor="middle" fill="#1F2937" font-family="Arial">formula, table, image</text>
<text x="1695.0" y="663.0" font-size="24" text-anchor="middle" fill="#1F2937" font-family="Arial">без повторного OCR</text>
<rect x="1510" y="1090" width="370" height="260" rx="34" ry="34" fill="#EEF3FC" stroke="#6078B6" stroke-width="5" />
<text x="1695.0" y="1199.0" font-size="28" font-weight="700" text-anchor="middle" fill="#1F2937" font-family="Arial">Вырезать text-блок</text>
<text x="1695.0" y="1239.0" font-size="24" text-anchor="middle" fill="#1F2937" font-family="Arial">clamp_bbox</text>
<text x="1695.0" y="1267.0" font-size="24" text-anchor="middle" fill="#1F2937" font-family="Arial">crop_block</text>
<rect x="2020" y="1090" width="370" height="260" rx="34" ry="34" fill="#EEF3FC" stroke="#6078B6" stroke-width="5" />
<text x="2205.0" y="1199.0" font-size="28" font-weight="700" text-anchor="middle" fill="#1F2937" font-family="Arial">Запустить PaddleOCR</text>
<text x="2205.0" y="1239.0" font-size="24" text-anchor="middle" fill="#1F2937" font-family="Arial">predict() или ocr()</text>
<text x="2205.0" y="1267.0" font-size="24" text-anchor="middle" fill="#1F2937" font-family="Arial">получить OCRResult</text>
<rect x="2520" y="1290" width="370" height="200" rx="34" ry="34" fill="#EEF3FC" stroke="#6078B6" stroke-width="5" />
<text x="2705.0" y="1369.0" font-size="28" font-weight="700" text-anchor="middle" fill="#1F2937" font-family="Arial">Fallback на seed_text</text>
<text x="2705.0" y="1409.0" font-size="24" text-anchor="middle" fill="#1F2937" font-family="Arial">seed_text</text>
<text x="2705.0" y="1437.0" font-size="24" text-anchor="middle" fill="#1F2937" font-family="Arial">seed_confidence</text>
<rect x="3130" y="1090" width="370" height="260" rx="34" ry="34" fill="#EEF3FC" stroke="#6078B6" stroke-width="5" />
<text x="3315.0" y="1185.0" font-size="28" font-weight="700" text-anchor="middle" fill="#1F2937" font-family="Arial">Очистить текст</text>
<text x="3315.0" y="1225.0" font-size="24" text-anchor="middle" fill="#1F2937" font-family="Arial">postprocess_text</text>
<text x="3315.0" y="1253.0" font-size="24" text-anchor="middle" fill="#1F2937" font-family="Arial">убрать шум и</text>
<text x="3315.0" y="1281.0" font-size="24" text-anchor="middle" fill="#1F2937" font-family="Arial">лишние пробелы</text>
<rect x="3640" y="1090" width="370" height="260" rx="34" ry="34" fill="#EEF3FC" stroke="#6078B6" stroke-width="5" />
<text x="3825.0" y="1171.0" font-size="28" font-weight="700" text-anchor="middle" fill="#1F2937" font-family="Arial">Оценить качество</text>
<text x="3825.0" y="1211.0" font-size="24" text-anchor="middle" fill="#1F2937" font-family="Arial">empty text</text>
<text x="3825.0" y="1239.0" font-size="24" text-anchor="middle" fill="#1F2937" font-family="Arial">confidence &lt; threshold</text>
<text x="3825.0" y="1267.0" font-size="24" text-anchor="middle" fill="#1F2937" font-family="Arial">length &lt; min</text>
<text x="3825.0" y="1295.0" font-size="24" text-anchor="middle" fill="#1F2937" font-family="Arial">backend reserve</text>
<rect x="3640" y="430" width="370" height="300" rx="34" ry="34" fill="#EEF3FC" stroke="#6078B6" stroke-width="5" />
<text x="3825.0" y="515.0" font-size="28" font-weight="700" text-anchor="middle" fill="#1F2937" font-family="Arial">Сформировать</text>
<text x="3825.0" y="547.0" font-size="28" font-weight="700" text-anchor="middle" fill="#1F2937" font-family="Arial">ProcessedBlock</text>
<text x="3825.0" y="587.0" font-size="24" text-anchor="middle" fill="#1F2937" font-family="Arial">content, confidence</text>
<text x="3825.0" y="615.0" font-size="24" text-anchor="middle" fill="#1F2937" font-family="Arial">needs_review</text>
<text x="3825.0" y="643.0" font-size="24" text-anchor="middle" fill="#1F2937" font-family="Arial">crop_data_url</text>
<text x="3825.0" y="671.0" font-size="24" text-anchor="middle" fill="#1F2937" font-family="Arial">ocr_backend</text>
<rect x="4180" y="430" width="360" height="300" rx="34" ry="34" fill="#EEF3FC" stroke="#6078B6" stroke-width="5" />
<text x="4360.0" y="573.0" font-size="28" font-weight="700" text-anchor="middle" fill="#1F2937" font-family="Arial">Собрать PageContent</text>
<text x="4360.0" y="613.0" font-size="24" text-anchor="middle" fill="#1F2937" font-family="Arial">build_page_content</text>
<rect x="4680" y="430" width="380" height="300" rx="34" ry="34" fill="#EEF3FC" stroke="#6078B6" stroke-width="5" />
<text x="4870.0" y="559.0" font-size="28" font-weight="700" text-anchor="middle" fill="#1F2937" font-family="Arial">Сохранить результат</text>
<text x="4870.0" y="599.0" font-size="24" text-anchor="middle" fill="#1F2937" font-family="Arial">JSON в /tmp</text>
<text x="4870.0" y="627.0" font-size="24" text-anchor="middle" fill="#1F2937" font-family="Arial">cache_page_content</text>
<circle cx="320" cy="900" r="42" fill="#EAF8F0" stroke="#4FA06A" stroke-width="6" />
<text x="320" y="990" font-size="22" font-weight="700" text-anchor="middle" fill="#1F2937" font-family="Arial">Старт</text>
<circle cx="5230" cy="580" r="46" fill="#FBECEC" stroke="#C84A3D" stroke-width="6" />
<circle cx="5230" cy="580" r="36" fill="none" stroke="#C84A3D" stroke-width="6" />
<text x="5230" y="674" font-size="22" font-weight="700" text-anchor="middle" fill="#1F2937" font-family="Arial">Конец</text>
</svg>