<svg xmlns="http://www.w3.org/2000/svg" width="3400" height="1500" viewBox="0 0 3400 1500">
<text x="140" y="122" font-size="60" font-weight="700" fill="#1F2937" font-family="Arial">Модуль layout-анализа в формате BPMN</text>
<text x="140" y="168" font-size="30" fill="#667085" font-family="Arial">Параллельная работа Surya-предикторов и условная ветка обработки formula</text>
<line x1="140" y1="198" x2="3260" y2="198" stroke="#DCE3EE" stroke-width="3" />
<rect x="140" y="460" width="3120" height="900" rx="34" ry="34" fill="#F8FAFC" stroke="#CBD5E1" stroke-width="4" />
<line x1="320" y1="460" x2="320" y2="1360" stroke="#CBD5E1" stroke-width="3" />
<text x="230" y="888.0" font-size="30" font-weight="700" text-anchor="middle" fill="#1F2937" font-family="Arial">Модуль</text>
<text x="230" y="924.0" font-size="30" font-weight="700" text-anchor="middle" fill="#1F2937" font-family="Arial">layout-</text>
<text x="230" y="960.0" font-size="30" font-weight="700" text-anchor="middle" fill="#1F2937" font-family="Arial">анализа</text>
<polyline points="342,910 420,910" fill="none" stroke="#55637D" stroke-width="6" stroke-linecap="round" stroke-linejoin="round" />
<polygon points="420,910 398,897 398,923" fill="#55637D" />
<polyline points="730,910 810,910" fill="none" stroke="#55637D" stroke-width="6" stroke-linecap="round" stroke-linejoin="round" />
<polygon points="810,910 788,897 788,923" fill="#55637D" />
<polyline points="810,910 810,700 900,700" fill="none" stroke="#55637D" stroke-width="6" stroke-linecap="round" stroke-linejoin="round" />
<polygon points="900,700 878,687 878,713" fill="#55637D" />
<polyline points="810,910 810,1120 900,1120" fill="none" stroke="#55637D" stroke-width="6" stroke-linecap="round" stroke-linejoin="round" />
<polygon points="900,1120 878,1107 878,1133" fill="#55637D" />
<polyline points="1250,700 1360,700 1360,910" fill="none" stroke="#55637D" stroke-width="6" stroke-linecap="round" stroke-linejoin="round" />
<polygon points="1360,910 1347,888 1373,888" fill="#55637D" />
<polyline points="1250,1120 1360,1120 1360,910" fill="none" stroke="#55637D" stroke-width="6" stroke-linecap="round" stroke-linejoin="round" />
<polygon points="1360,910 1347,932 1373,932" fill="#55637D" />
<polyline points="1360,910 1520,910" fill="none" stroke="#55637D" stroke-width="6" stroke-linecap="round" stroke-linejoin="round" />
<polygon points="1520,910 1498,897 1498,923" fill="#55637D" />
<polyline points="1910,910 1985,910" fill="none" stroke="#55637D" stroke-width="6" stroke-linecap="round" stroke-linejoin="round" />
<polygon points="1985,910 1963,897 1963,923" fill="#55637D" />
<polyline points="1985,910 2430,910" fill="none" stroke="#55637D" stroke-width="6" stroke-linecap="round" stroke-linejoin="round" />
<polygon points="2430,910 2408,897 2408,923" fill="#55637D" />
<text x="2130" y="866" font-size="22" font-weight="700" fill="#667085" font-family="Arial">нет formula</text>
<polyline points="1985,910 1985,1220 2030,1220" fill="none" stroke="#55637D" stroke-width="6" stroke-linecap="round" stroke-linejoin="round" />
<polygon points="2030,1220 2008,1207 2008,1233" fill="#55637D" />
<text x="1828" y="1066" font-size="22" font-weight="700" fill="#667085" font-family="Arial">есть formula</text>
<polyline points="2390,1220 2430,1220 2430,910" fill="none" stroke="#55637D" stroke-width="6" stroke-linecap="round" stroke-linejoin="round" />
<polygon points="2430,910 2417,932 2443,932" fill="#55637D" />
<polyline points="2430,910 2470,910" fill="none" stroke="#55637D" stroke-width="6" stroke-linecap="round" stroke-linejoin="round" />
<polygon points="2470,910 2448,897 2448,923" fill="#55637D" />
<polyline points="2850,910 2940,910" fill="none" stroke="#55637D" stroke-width="6" stroke-linecap="round" stroke-linejoin="round" />
<polygon points="2940,910 2918,897 2918,923" fill="#55637D" />
<polyline points="3180,910 3174,910" fill="none" stroke="#55637D" stroke-width="6" stroke-linecap="round" stroke-linejoin="round" />
<polygon points="3174,910 3196,897 3196,923" fill="#55637D" />
<polygon points="810,864 856,910 810,956 764,910" fill="#FFF8E8" stroke="#D18B00" stroke-width="5" />
<text x="810" y="924" font-size="38" font-weight="700" text-anchor="middle" fill="#1F2937" font-family="Arial">+</text>
<polygon points="1360,864 1406,910 1360,956 1314,910" fill="#FFF8E8" stroke="#D18B00" stroke-width="5" />
<text x="1360" y="924" font-size="38" font-weight="700" text-anchor="middle" fill="#1F2937" font-family="Arial">+</text>
<polygon points="1985,864 2031,910 1985,956 1939,910" fill="#FFF8E8" stroke="#D18B00" stroke-width="5" />
<text x="1985" y="924" font-size="38" font-weight="700" text-anchor="middle" fill="#1F2937" font-family="Arial">X</text>
<polygon points="2430,864 2476,910 2430,956 2384,910" fill="#FFF8E8" stroke="#D18B00" stroke-width="5" />
<text x="2430" y="924" font-size="38" font-weight="700" text-anchor="middle" fill="#1F2937" font-family="Arial">X</text>
<rect x="420" y="760" width="310" height="300" rx="34" ry="34" fill="#EEF3FC" stroke="#6078B6" stroke-width="5" />
<text x="575.0" y="873.0" font-size="28" font-weight="700" text-anchor="middle" fill="#1F2937" font-family="Arial">Получить вход</text>
<text x="575.0" y="905.0" font-size="28" font-weight="700" text-anchor="middle" fill="#1F2937" font-family="Arial">страницы</text>
<text x="575.0" y="945.0" font-size="24" text-anchor="middle" fill="#1F2937" font-family="Arial">RGB-изображение</text>
<text x="575.0" y="973.0" font-size="24" text-anchor="middle" fill="#1F2937" font-family="Arial">после рендера PDF</text>
<rect x="900" y="600" width="350" height="200" rx="34" ry="34" fill="#EEF3FC" stroke="#6078B6" stroke-width="5" />
<text x="1075.0" y="663.0" font-size="28" font-weight="700" text-anchor="middle" fill="#1F2937" font-family="Arial">Определить</text>
<text x="1075.0" y="695.0" font-size="28" font-weight="700" text-anchor="middle" fill="#1F2937" font-family="Arial">layout-блоки</text>
<text x="1075.0" y="735.0" font-size="24" text-anchor="middle" fill="#1F2937" font-family="Arial">Surya LayoutPredictor</text>
<text x="1075.0" y="763.0" font-size="24" text-anchor="middle" fill="#1F2937" font-family="Arial">bbox, label, position</text>
<rect x="900" y="1020" width="350" height="200" rx="34" ry="34" fill="#EEF3FC" stroke="#6078B6" stroke-width="5" />
<text x="1075.0" y="1099.0" font-size="28" font-weight="700" text-anchor="middle" fill="#1F2937" font-family="Arial">Извлечь OCR-строки</text>
<text x="1075.0" y="1139.0" font-size="24" text-anchor="middle" fill="#1F2937" font-family="Arial">Surya RecognitionPredictor</text>
<text x="1075.0" y="1167.0" font-size="24" text-anchor="middle" fill="#1F2937" font-family="Arial">ocr_with_boxes</text>
<rect x="1520" y="740" width="390" height="340" rx="34" ry="34" fill="#EEF3FC" stroke="#6078B6" stroke-width="5" />
<text x="1715.0" y="845.0" font-size="28" font-weight="700" text-anchor="middle" fill="#1F2937" font-family="Arial">Сформировать</text>
<text x="1715.0" y="877.0" font-size="28" font-weight="700" text-anchor="middle" fill="#1F2937" font-family="Arial">LayoutBlock</text>
<text x="1715.0" y="917.0" font-size="24" text-anchor="middle" fill="#1F2937" font-family="Arial">нормализовать тип блока</text>
<text x="1715.0" y="945.0" font-size="24" text-anchor="middle" fill="#1F2937" font-family="Arial">сопоставить OCR-строки</text>
<text x="1715.0" y="973.0" font-size="24" text-anchor="middle" fill="#1F2937" font-family="Arial">заполнить text, confidence</text>
<text x="1715.0" y="1001.0" font-size="24" text-anchor="middle" fill="#1F2937" font-family="Arial">и reading_order</text>
<rect x="2030" y="1120" width="360" height="200" rx="34" ry="34" fill="#EEF3FC" stroke="#6078B6" stroke-width="5" />
<text x="2210.0" y="1185.0" font-size="28" font-weight="700" text-anchor="middle" fill="#1F2937" font-family="Arial">Извлечь LaTeX</text>
<text x="2210.0" y="1225.0" font-size="24" text-anchor="middle" fill="#1F2937" font-family="Arial">вырезать formula-блок</text>
<text x="2210.0" y="1253.0" font-size="24" text-anchor="middle" fill="#1F2937" font-family="Arial">block_without_boxes</text>
<text x="2210.0" y="1281.0" font-size="24" text-anchor="middle" fill="#1F2937" font-family="Arial">сохранить latex</text>
<rect x="2470" y="740" width="380" height="340" rx="34" ry="34" fill="#EEF3FC" stroke="#6078B6" stroke-width="5" />
<text x="2660.0" y="833.0" font-size="28" font-weight="700" text-anchor="middle" fill="#1F2937" font-family="Arial">Постобработать блоки</text>
<text x="2660.0" y="873.0" font-size="24" text-anchor="middle" fill="#1F2937" font-family="Arial">удалить мелкие области</text>
<text x="2660.0" y="901.0" font-size="24" text-anchor="middle" fill="#1F2937" font-family="Arial">определить page_number</text>
<text x="2660.0" y="929.0" font-size="24" text-anchor="middle" fill="#1F2937" font-family="Arial">объединить соседние</text>
<text x="2660.0" y="957.0" font-size="24" text-anchor="middle" fill="#1F2937" font-family="Arial">text/title/header/footer</text>
<text x="2660.0" y="985.0" font-size="24" text-anchor="middle" fill="#1F2937" font-family="Arial">перенумеровать</text>
<text x="2660.0" y="1013.0" font-size="24" text-anchor="middle" fill="#1F2937" font-family="Arial">reading_order</text>
<rect x="2940" y="740" width="240" height="340" rx="34" ry="34" fill="#EEF3FC" stroke="#6078B6" stroke-width="5" />
<text x="3060.0" y="845.0" font-size="28" font-weight="700" text-anchor="middle" fill="#1F2937" font-family="Arial">Сохранить</text>
<text x="3060.0" y="877.0" font-size="28" font-weight="700" text-anchor="middle" fill="#1F2937" font-family="Arial">артефакты</text>
<text x="3060.0" y="917.0" font-size="24" text-anchor="middle" fill="#1F2937" font-family="Arial">PNG-визуализация</text>
<text x="3060.0" y="945.0" font-size="24" text-anchor="middle" fill="#1F2937" font-family="Arial">JSON-результат</text>
<text x="3060.0" y="973.0" font-size="24" text-anchor="middle" fill="#1F2937" font-family="Arial">cache и</text>
<text x="3060.0" y="1001.0" font-size="24" text-anchor="middle" fill="#1F2937" font-family="Arial">response</text>
<circle cx="300" cy="910" r="42" fill="#EAF8F0" stroke="#4FA06A" stroke-width="6" />
<text x="300" y="1000" font-size="22" font-weight="700" text-anchor="middle" fill="#1F2937" font-family="Arial">Старт</text>
<circle cx="3220" cy="910" r="46" fill="#FBECEC" stroke="#C84A3D" stroke-width="6" />
<circle cx="3220" cy="910" r="36" fill="none" stroke="#C84A3D" stroke-width="6" />
<text x="3220" y="1004" font-size="22" font-weight="700" text-anchor="middle" fill="#1F2937" font-family="Arial">Конец</text>
</svg>